#N canvas 676 239 799 842 10;
#X obj 428 76 soundfiler;
#X obj 429 247 *~;
#N canvas 0 50 450 250 (subpatch) 0;
#X array inData 193745 float 2;
#X coords 0 1 193745 -1 200 140 1;
#X restore 109 139 graph;
#X obj 429 279 tabread4~ inData;
#X obj 269 745 dac~;
#X floatatom 428 99 5 0 0 0 - - -;
#X obj 428 130 expr 44100/$f1;
#X obj 428 198 phasor~;
#X msg 373 151 0, f 4;
#X obj 551 211 hsl 128 15 0 1 0 0 empty empty empty -2 -8 0 10 -262144
-1 -1 381 1;
#X floatatom 548 231 5 0 0 0 - - -;
#X msg 430 45 read -resize ../samples/perky1.wav inData;
#N canvas 22 57 799 842 resonator 0;
#X obj 153 341 outlet~;
#X obj 152 196 inlet~;
#X text 177 107 delay (ms);
#X obj 200 126 inlet~;
#X obj 200 237 *~, f 13;
#X obj 63 223 block~ 1;
#X obj 200 311 delwrite~ \$0-feedbackDelay 100;
#X obj 200 214 delread4~ \$0-feedbackDelay;
#X obj 200 259 lop~, f 32;
#X obj 389 144 inlet f;
#X text 374 124 filter cutoff;
#X obj 275 144 inlet~;
#X text 260 124 decay factor;
#X obj 275 166 clip~ 0 0.9999;
#X connect 1 0 4 0;
#X connect 3 0 7 0;
#X connect 4 0 8 0;
#X connect 7 0 4 0;
#X connect 8 0 6 0;
#X connect 8 0 0 0;
#X connect 9 0 8 1;
#X connect 11 0 13 0;
#X connect 13 0 4 1;
#X restore 346 690 pd resonator;
#X floatatom 465 568 5 0 0 0 - - -;
#X floatatom 509 618 5 0 0 0 - - -;
#X floatatom 383 574 5 0 0 0 - - -;
#X obj 383 608 mtof;
#X obj 434 605 mtof;
#X obj 550 472 loadbang;
#X msg 498 507 50;
#X msg 550 519 1000;
#X obj 333 15 loadbang;
#X msg 334 103 0.03;
#X obj 321 63 del 100;
#X obj 372 352 verbmixer;
#X obj 428 14 bng 15 250 50 0 empty empty empty 17 7 0 10 -262144 -1
-1;
#X obj 167 333 loadbang;
#X msg 167 427 \; pd dsp 1;
#X obj 167 387 del 100;
#X obj 568 107 osc/unpackOSC;
#X obj 568 129 osc/routeOSC /pdRecv;
#X floatatom 568 175 5 0 0 0 - - -;
#X floatatom 625 175 5 0 0 0 - - -;
#X obj 568 151 unpack f f;
#X obj 568 85 iemnet/udpreceive 9001;
#X obj 633 289 expr $f1/10080;
#X floatatom 633 312 5 0 0 0 - - -;
#X connect 0 0 5 0;
#X connect 1 0 3 0;
#X connect 3 0 24 0;
#X connect 3 0 24 1;
#X connect 5 0 6 0;
#X connect 5 0 1 1;
#X connect 6 0 7 0;
#X connect 7 0 1 0;
#X connect 8 0 7 0;
#X connect 9 0 10 0;
#X connect 9 0 7 0;
#X connect 11 0 0 0;
#X connect 12 0 4 1;
#X connect 12 0 4 0;
#X connect 13 0 17 0;
#X connect 14 0 12 3;
#X connect 15 0 16 0;
#X connect 16 0 12 1;
#X connect 17 0 12 2;
#X connect 18 0 19 0;
#X connect 18 0 20 0;
#X connect 19 0 13 0;
#X connect 19 0 15 0;
#X connect 20 0 14 0;
#X connect 21 0 11 0;
#X connect 21 0 23 0;
#X connect 22 0 9 0;
#X connect 23 0 22 0;
#X connect 24 0 12 0;
#X connect 25 0 11 0;
#X connect 26 0 28 0;
#X connect 28 0 27 0;
#X connect 29 0 30 0;
#X connect 30 0 33 0;
#X connect 31 0 35 0;
#X connect 32 0 14 0;
#X connect 33 0 31 0;
#X connect 33 1 32 0;
#X connect 34 0 29 0;
#X connect 35 0 36 0;
#X connect 36 0 9 0;
