#N canvas 38 145 605 671 10;
#X obj 33 206 inlet~;
#X obj 138 556 *~;
#X obj 273 206 inlet~;
#X obj 378 556 *~;
#X obj 100 104 vsl 50 70 0 1 0 0 \$0-left_s \$0-left_r empty 0 -9 0
10 -262144 -1 -1 6900 1;
#X obj 260 104 vsl 50 70 0 1 0 0 \$0-right_s \$0-right_r empty 0 -9
0 10 -262144 -1 -1 6900 1;
#X obj 153 493 pow 2;
#X obj 393 493 pow 2;
#X msg 153 514 \$1 10;
#X obj 153 535 line~;
#X msg 393 514 \$1 10;
#X obj 393 535 line~;
#X obj 138 577 outlet~;
#X obj 378 577 outlet~;
#X obj 150 104 vsl 50 70 0 1 0 0 \$0-reverb_s \$0-reverb_r empty 0
-9 0 10 -262144 -1 -1 1725 1;
#X obj 153 472 r \$0-left_s;
#X obj 393 472 r \$0-right_s;
#X text 112 132 LEFT;
#X text 271 132 RIGHT;
#X text 156 132 REVERB;
#X text 167 106 WET;
#X text 165 158 DRY;
#X floatatom 210 102 6 0 99 0 - #0-reverb_depth_r #0-reverb_depth_s
, f 6;
#X text 212 118 depth;
#X obj 138 317 rev1~, f 12;
#X obj 378 317 rev1~, f 15;
#X obj 172 241 r \$0-reverb_depth_s;
#X obj 172 262 t f f, f 42;
#X obj 210 136 bng 40 250 50 0 \$0-clear_s \$0-clear_r empty 17 7 0
10 -262144 -1 -1;
#X text 213 148 clear;
#X obj 33 448 *~;
#X obj 138 448 *~;
#X obj 378 448 *~;
#X obj 273 448 *~;
#X obj 153 387 r \$0-reverb_s;
#X obj 48 426 expr 1 - $f1;
#X obj 393 387 r \$0-reverb_s;
#X obj 288 418 expr 1 - $f1;
#N canvas 0 23 450 300 initialize 0;
#X obj 23 85 loadbang;
#X msg 93 101 1;
#X obj 93 122 t f f;
#X obj 93 163 s \$0-left_r;
#X obj 120 143 s \$0-right_r;
#X msg 203 101 0.25;
#X obj 203 122 s \$0-reverb_r;
#X obj 303 122 s \$0-reverb_depth_r;
#X msg 303 101 20;
#X connect 0 0 1 0;
#X connect 0 0 5 0;
#X connect 0 0 8 0;
#X connect 1 0 2 0;
#X connect 2 0 3 0;
#X connect 2 1 4 0;
#X connect 5 0 6 0;
#X connect 8 0 7 0;
#X restore 39 38 pd initialize;
#X obj 207 293 r \$0-clear_s;
#X obj 465 293 r \$0-clear_s;
#X text 198 39 runs 2 parallel instances of rev1~ on parallel input
signals;
#X text 198 59 and provides mixing control;
#X connect 0 0 24 0;
#X connect 0 0 30 0;
#X connect 1 0 12 0;
#X connect 2 0 25 0;
#X connect 2 0 33 0;
#X connect 3 0 13 0;
#X connect 6 0 8 0;
#X connect 7 0 10 0;
#X connect 8 0 9 0;
#X connect 9 0 1 1;
#X connect 10 0 11 0;
#X connect 11 0 3 1;
#X connect 15 0 6 0;
#X connect 16 0 7 0;
#X connect 24 0 31 0;
#X connect 25 0 32 0;
#X connect 26 0 27 0;
#X connect 27 0 24 1;
#X connect 27 1 25 1;
#X connect 30 0 1 0;
#X connect 31 0 1 0;
#X connect 32 0 3 0;
#X connect 33 0 3 0;
#X connect 34 0 35 0;
#X connect 34 0 31 1;
#X connect 35 0 30 1;
#X connect 36 0 37 0;
#X connect 36 0 32 1;
#X connect 37 0 33 1;
#X connect 39 0 24 2;
#X connect 40 0 25 2;
#X coords 0 -1 1 1 210 80 2 100 100;
